<svg width="38" height="302" viewBox="0 0 38 302" fill="none" xmlns="http://www.w3.org/2000/svg">
<path d="M34 297.478L5.30435 297.478" stroke="#D9D9D9" stroke-width="8" stroke-linecap="round"/>
<path d="M32.6958 140.957L4.00015 140.957" stroke="#D9D9D9" stroke-width="8" stroke-linecap="round"/>
<path d="M34 219.217L5.30435 219.217" stroke="#D9D9D9" stroke-width="8" stroke-linecap="round"/>
<path d="M32.6958 62.6957L4.00015 62.6957" stroke="#D9D9D9" stroke-width="8" stroke-linecap="round"/>
<path d="M34 258.348L5.30435 258.348" stroke="#D9D9D9" stroke-width="8" stroke-linecap="round"/>
<path d="M32.6958 101.826L4.00015 101.826" stroke="#D9D9D9" stroke-width="8" stroke-linecap="round"/>
<path d="M34 180.087L5.30435 180.087" stroke="#D9D9D9" stroke-width="8" stroke-linecap="round"/>
<path d="M32.6958 23.5652L4.00015 23.5652" stroke="#D9D9D9" stroke-width="8" stroke-linecap="round"/>
<path d="M34 277.913L5.30435 277.913" stroke="#D9D9D9" stroke-width="8" stroke-linecap="round"/>
<path d="M32.6958 121.391L4.00015 121.391" stroke="#D9D9D9" stroke-width="8" stroke-linecap="round"/>
<path d="M34 199.652L5.30435 199.652" stroke="#D9D9D9" stroke-width="8" stroke-linecap="round"/>
<path d="M32.6958 43.1304L4.00015 43.1304" stroke="#D9D9D9" stroke-width="8" stroke-linecap="round"/>
<path d="M34 238.783L5.30435 238.783" stroke="#D9D9D9" stroke-width="8" stroke-linecap="round"/>
<path d="M32.6958 82.2609L4.00015 82.2609" stroke="#D9D9D9" stroke-width="8" stroke-linecap="round"/>
<path d="M34 160.522L5.30435 160.522" stroke="#D9D9D9" stroke-width="8" stroke-linecap="round"/>
<path d="M32.6958 4L4.00015 4" stroke="#D9D9D9" stroke-width="8" stroke-linecap="round"/>
</svg>
