<svg width="317" height="111" viewBox="0 0 317 111" fill="none" xmlns="http://www.w3.org/2000/svg">
<path d="M4.5 107L35.5 76L66 107" stroke="#DDDDDD" stroke-width="5" stroke-linecap="square"/>
<path d="M4 71L35 40L65.5 71" stroke="#DDDDDD" stroke-width="5" stroke-linecap="square"/>
<path d="M5 35L36 4L66.5 35" stroke="#DDDDDD" stroke-width="5" stroke-linecap="square"/>
<path d="M127.5 107L158.5 76L189 107" stroke="#DDDDDD" stroke-width="5" stroke-linecap="square"/>
<path d="M127 71L158 40L188.5 71" stroke="#DDDDDD" stroke-width="5" stroke-linecap="square"/>
<path d="M128 35L159 4L189.5 35" stroke="#DDDDDD" stroke-width="5" stroke-linecap="square"/>
<path d="M250.5 107L281.5 76L312 107" stroke="#DDDDDD" stroke-width="5" stroke-linecap="square"/>
<path d="M250 71L281 40L311.5 71" stroke="#DDDDDD" stroke-width="5" stroke-linecap="square"/>
<path d="M251 35L282 4L312.5 35" stroke="#DDDDDD" stroke-width="5" stroke-linecap="square"/>
<path d="M66 107L97 76L127.5 107" stroke="#DDDDDD" stroke-width="5" stroke-linecap="square"/>
<path d="M65.5 71L96.5 40L127 71" stroke="#DDDDDD" stroke-width="5" stroke-linecap="square"/>
<path d="M66.5 35L97.5 4L128 35" stroke="#DDDDDD" stroke-width="5" stroke-linecap="square"/>
<path d="M189 107L220 76L250.5 107" stroke="#DDDDDD" stroke-width="5" stroke-linecap="square"/>
<path d="M188.5 71L219.5 40L250 71" stroke="#DDDDDD" stroke-width="5" stroke-linecap="square"/>
<path d="M189.5 35L220.5 4L251 35" stroke="#DDDDDD" stroke-width="5" stroke-linecap="square"/>
</svg>
