<svg width="476" height="45" viewBox="0 0 476 45" fill="none" xmlns="http://www.w3.org/2000/svg">
<path d="M24 2L2 40.1051" stroke="#F5C802" stroke-width="4" stroke-linecap="round"/>
<path d="M264 4L242 42.1051" stroke="#F5C802" stroke-width="4" stroke-linecap="round"/>
<path d="M144 2L122 40.1051" stroke="#F5C802" stroke-width="4" stroke-linecap="round"/>
<path d="M384 4L362 42.1051" stroke="#F5C802" stroke-width="4" stroke-linecap="round"/>
<path d="M84 2L62 40.1051" stroke="#F5C802" stroke-width="4" stroke-linecap="round"/>
<path d="M324 4L302 42.1051" stroke="#F5C802" stroke-width="4" stroke-linecap="round"/>
<path d="M204 2L182 40.1051" stroke="#F5C802" stroke-width="4" stroke-linecap="round"/>
<path d="M444 4L422 42.1051" stroke="#F5C802" stroke-width="4" stroke-linecap="round"/>
<path d="M54 2L32 40.1051" stroke="#F5C802" stroke-width="4" stroke-linecap="round"/>
<path d="M294 4L272 42.1051" stroke="#F5C802" stroke-width="4" stroke-linecap="round"/>
<path d="M174 2L152 40.1051" stroke="#F5C802" stroke-width="4" stroke-linecap="round"/>
<path d="M414 4L392 42.1051" stroke="#F5C802" stroke-width="4" stroke-linecap="round"/>
<path d="M114 2L92 40.1051" stroke="#F5C802" stroke-width="4" stroke-linecap="round"/>
<path d="M354 4L332 42.1051" stroke="#F5C802" stroke-width="4" stroke-linecap="round"/>
<path d="M234 2L212 40.1051" stroke="#F5C802" stroke-width="4" stroke-linecap="round"/>
<path d="M474 4L452 42.1051" stroke="#F5C802" stroke-width="4" stroke-linecap="round"/>
</svg>
