<?xml version="1.0" encoding="UTF-8"?>
<svg id="Layer_2" data-name="Layer 2" xmlns="http://www.w3.org/2000/svg" viewBox="0 0 247.95 132.56">
  <defs>
    <style>
      .cls-1 {
        fill: none;
        stroke-width: 14.01px;
      }

      .cls-1, .cls-2 {
        stroke-linecap: square;
      }

      .cls-1, .cls-2, .cls-3 {
        stroke: #000;
        stroke-miterlimit: 10;
      }

      .cls-2 {
        stroke-width: 10.78px;
      }

      .cls-3 {
        stroke-width: 4.31px;
      }
    </style>
  </defs>
  <g id="Layer_1-2" data-name="Layer 1">
    <g>
      <g>
        <circle class="cls-1" cx="30.95" cy="33.04" r="23.95"/>
        <circle class="cls-1" cx="30.95" cy="99.52" r="23.95"/>
      </g>
      <path class="cls-2" d="M242.39,35.28v3.24h-12.6v-3.92c0-10.73-4.09-17.03-13.62-17.03s-13.62,6.3-13.62,16.86c0,26.74,40.02,29.29,40.02,62.84,0,18.05-8.69,29.8-26.91,29.8s-26.74-11.75-26.74-29.8v-6.81h12.43v7.49c0,10.73,4.43,17.03,13.97,17.03s13.97-6.3,13.97-17.03c0-26.57-39.85-29.12-39.85-62.67,0-18.39,8.52-29.8,26.4-29.8s26.57,11.75,26.57,29.8h-.02Z"/>
      <polygon class="cls-2" points="153.76 5.39 145.15 5.39 145.15 12.45 157.92 94 129.65 94 128.01 102.64 143.23 102.64 158.81 102.64 163.51 127.17 177.07 127.17 153.76 5.39"/>
      <polygon class="cls-3" points="84.03 130.08 68.38 130.08 91.51 2.52 107.16 2.52 84.03 130.08"/>
      <polygon class="cls-3" points="110.78 130.08 95.13 130.08 118.26 2.52 133.92 2.52 110.78 130.08"/>
    </g>
  </g>
</svg>