<svg width="617" height="417" viewBox="0 0 617 417" fill="none" xmlns="http://www.w3.org/2000/svg">
<path d="M28.1637 393.357H15.3796L29.783 349.72H45.9762L60.3796 393.357H47.5955L38.05 361.737H37.7091L28.1637 393.357ZM25.7773 376.141H49.8114V385.005H25.7773V376.141ZM70.5642 393.357L57.6949 349.72H70.9051L76.871 376.567H77.212L84.2858 349.72H94.6835L101.757 376.652H102.098L108.064 349.72H121.274L108.405 393.357H97.0699L89.6551 368.982H89.3142L81.8995 393.357H70.5642ZM125.11 393.357V349.72H136.956V367.362H137.553L150.678 349.72H164.485L149.74 369.152L164.826 393.357H150.678L140.877 376.993L136.956 382.107V393.357H125.11ZM179.08 393.357L166.211 349.72H179.421L185.387 376.567H185.728L192.801 349.72H203.199L210.273 376.652H210.614L216.58 349.72H229.79L216.921 393.357H205.586L198.171 368.982H197.83L190.415 393.357H179.08ZM239.863 393.357H227.079L241.482 349.72H257.675L272.079 393.357H259.295L249.749 361.737H249.408L239.863 393.357ZM237.477 376.141H261.511V385.005H237.477V376.141ZM276.282 393.357V349.72H295.117C298.355 349.72 301.189 350.31 303.618 351.489C306.047 352.668 307.936 354.365 309.286 356.581C310.635 358.797 311.31 361.453 311.31 364.55C311.31 367.675 310.614 370.31 309.222 372.455C307.844 374.6 305.905 376.219 303.405 377.313C300.919 378.407 298.015 378.953 294.691 378.953H283.441V369.749H292.304C293.696 369.749 294.882 369.578 295.863 369.237C296.857 368.882 297.617 368.321 298.142 367.554C298.682 366.787 298.952 365.786 298.952 364.55C298.952 363.3 298.682 362.284 298.142 361.503C297.617 360.708 296.857 360.125 295.863 359.756C294.882 359.372 293.696 359.181 292.304 359.181H288.128V393.357H276.282ZM301.85 373.328L312.759 393.357H299.89L289.236 373.328H301.85ZM333.149 393.357H316.36V349.72H332.979C337.468 349.72 341.345 350.594 344.613 352.341C347.894 354.074 350.422 356.574 352.198 359.841C353.988 363.094 354.882 366.993 354.882 371.539C354.882 376.084 353.995 379.99 352.219 383.257C350.443 386.51 347.929 389.01 344.676 390.757C341.424 392.49 337.581 393.357 333.149 393.357ZM328.206 383.3H332.723C334.882 383.3 336.722 382.952 338.242 382.256C339.776 381.56 340.941 380.36 341.736 378.655C342.546 376.951 342.951 374.578 342.951 371.539C342.951 368.499 342.539 366.127 341.715 364.422C340.905 362.718 339.712 361.517 338.135 360.821C336.573 360.125 334.655 359.777 332.382 359.777H328.206V383.3ZM395.839 363.357C395.726 361.936 395.193 360.828 394.241 360.033C393.304 359.237 391.876 358.84 389.959 358.84C388.737 358.84 387.736 358.989 386.954 359.287C386.187 359.571 385.619 359.962 385.25 360.459C384.881 360.956 384.689 361.524 384.675 362.164C384.646 362.689 384.739 363.165 384.952 363.591C385.179 364.003 385.534 364.38 386.017 364.72C386.5 365.047 387.118 365.345 387.871 365.615C388.624 365.885 389.518 366.127 390.555 366.34L394.135 367.107C396.55 367.618 398.616 368.293 400.335 369.131C402.054 369.969 403.46 370.956 404.554 372.093C405.648 373.215 406.45 374.479 406.962 375.885C407.487 377.291 407.757 378.826 407.771 380.487C407.757 383.357 407.04 385.786 405.619 387.774C404.199 389.763 402.168 391.276 399.526 392.313C396.898 393.35 393.737 393.868 390.044 393.868C386.251 393.868 382.942 393.307 380.115 392.185C377.303 391.063 375.115 389.337 373.553 387.007C372.004 384.664 371.223 381.666 371.209 378.016H382.459C382.53 379.351 382.864 380.473 383.46 381.382C384.057 382.291 384.895 382.98 385.974 383.449C387.068 383.918 388.368 384.152 389.874 384.152C391.138 384.152 392.196 383.996 393.048 383.684C393.901 383.371 394.547 382.938 394.987 382.384C395.428 381.83 395.655 381.198 395.669 380.487C395.655 379.82 395.435 379.237 395.008 378.74C394.597 378.229 393.915 377.774 392.963 377.377C392.011 376.965 390.726 376.581 389.106 376.226L384.76 375.289C380.896 374.451 377.849 373.051 375.619 371.091C373.403 369.117 372.303 366.425 372.317 363.016C372.303 360.246 373.041 357.824 374.533 355.75C376.038 353.662 378.119 352.036 380.776 350.871C383.446 349.706 386.507 349.124 389.959 349.124C393.481 349.124 396.528 349.713 399.099 350.892C401.67 352.071 403.652 353.733 405.044 355.878C406.45 358.009 407.16 360.502 407.175 363.357H395.839ZM411.084 359.266V349.72H449.011V359.266H435.886V393.357H424.209V359.266H411.084ZM479.293 349.72H491.14V377.675C491.14 380.999 490.344 383.875 488.753 386.304C487.176 388.719 484.975 390.587 482.148 391.908C479.321 393.215 476.04 393.868 472.304 393.868C468.54 393.868 465.245 393.215 462.418 391.908C459.591 390.587 457.39 388.719 455.813 386.304C454.25 383.875 453.469 380.999 453.469 377.675V349.72H465.316V376.652C465.316 378.002 465.614 379.209 466.211 380.274C466.807 381.326 467.631 382.149 468.682 382.746C469.747 383.343 470.955 383.641 472.304 383.641C473.668 383.641 474.875 383.343 475.926 382.746C476.978 382.149 477.801 381.326 478.398 380.274C478.995 379.209 479.293 378.002 479.293 376.652V349.72ZM513.56 393.357H496.77V349.72H513.389C517.878 349.72 521.756 350.594 525.023 352.341C528.304 354.074 530.832 356.574 532.608 359.841C534.398 363.094 535.293 366.993 535.293 371.539C535.293 376.084 534.405 379.99 532.629 383.257C530.854 386.51 528.339 389.01 525.087 390.757C521.834 392.49 517.991 393.357 513.56 393.357ZM508.616 383.3H513.133C515.293 383.3 517.132 382.952 518.652 382.256C520.186 381.56 521.351 380.36 522.146 378.655C522.956 376.951 523.361 374.578 523.361 371.539C523.361 368.499 522.949 366.127 522.125 364.422C521.315 362.718 520.122 361.517 518.545 360.821C516.983 360.125 515.065 359.777 512.793 359.777H508.616V383.3ZM552.62 349.72V393.357H540.774V349.72H552.62ZM600.507 371.539C600.507 376.397 599.563 380.495 597.674 383.833C595.784 387.157 593.235 389.678 590.024 391.397C586.814 393.101 583.235 393.953 579.286 393.953C575.309 393.953 571.715 393.094 568.505 391.375C565.309 389.642 562.766 387.114 560.877 383.79C559.002 380.452 558.064 376.368 558.064 371.539C558.064 366.681 559.002 362.59 560.877 359.266C562.766 355.928 565.309 353.407 568.505 351.702C571.715 349.983 575.309 349.124 579.286 349.124C583.235 349.124 586.814 349.983 590.024 351.702C593.235 353.407 595.784 355.928 597.674 359.266C599.563 362.59 600.507 366.681 600.507 371.539ZM588.32 371.539C588.32 368.925 587.972 366.723 587.276 364.934C586.594 363.13 585.578 361.766 584.229 360.843C582.894 359.905 581.246 359.436 579.286 359.436C577.326 359.436 575.671 359.905 574.321 360.843C572.986 361.766 571.97 363.13 571.274 364.934C570.593 366.723 570.252 368.925 570.252 371.539C570.252 374.152 570.593 376.361 571.274 378.165C571.97 379.955 572.986 381.318 574.321 382.256C575.671 383.179 577.326 383.641 579.286 383.641C581.246 383.641 582.894 383.179 584.229 382.256C585.578 381.318 586.594 379.955 587.276 378.165C587.972 376.361 588.32 374.152 588.32 371.539Z" fill="black"/>
<path d="M89.6916 135.072C120.829 135.072 146.071 109.83 146.071 78.6931C146.071 47.5558 120.829 22.3141 89.6916 22.3141C58.5543 22.3141 33.3125 47.5558 33.3125 78.6931C33.3125 109.83 58.5543 135.072 89.6916 135.072Z" stroke="black" stroke-width="32" stroke-miterlimit="10" stroke-linecap="square"/>
<path d="M89.6916 291.561C120.829 291.561 146.071 266.319 146.071 235.182C146.071 204.045 120.829 178.803 89.6916 178.803C58.5543 178.803 33.3125 204.045 33.3125 235.182C33.3125 266.319 58.5543 291.561 89.6916 291.561Z" stroke="black" stroke-width="32" stroke-miterlimit="10" stroke-linecap="square"/>
<path d="M587.352 83.981V91.5976H557.682V82.3732C557.682 57.1187 548.063 42.2876 525.615 42.2876C503.168 42.2876 493.548 57.1187 493.548 81.9781C493.548 144.913 587.754 150.929 587.754 229.901C587.754 272.392 567.309 300.058 524.416 300.058C481.524 300.058 461.474 272.399 461.474 229.901V213.864H490.742V231.502C490.742 256.757 501.165 271.588 523.613 271.588C546.06 271.588 556.484 256.757 556.484 231.502C556.484 168.962 462.673 162.953 462.673 83.981C462.673 40.6866 482.716 13.8243 524.811 13.8243C566.907 13.8243 587.352 41.4836 587.352 83.981Z" fill="black" stroke="black" stroke-width="22" stroke-miterlimit="10" stroke-linecap="square"/>
<path d="M378.767 13.6164H358.502V30.2425L388.545 222.201H322.02L318.16 242.528H353.969H390.638L401.699 300.266H433.635L378.767 13.6164Z" fill="black" stroke="black" stroke-width="22" stroke-miterlimit="10" stroke-linecap="square"/>
<path d="M214.633 307.12H177.798L232.237 6.88002H269.072L214.633 307.12Z" fill="black" stroke="black" stroke-width="10" stroke-miterlimit="10"/>
<path d="M277.589 307.12H240.754L295.193 6.88002H332.028L277.589 307.12Z" fill="black" stroke="black" stroke-width="10" stroke-miterlimit="10"/>
</svg>
