<svg width="246" height="25" viewBox="0 0 246 25" fill="none" xmlns="http://www.w3.org/2000/svg">
<path d="M13.2793 2L1.99962 21.537" stroke="#F5C802" stroke-width="4" stroke-linecap="round"/>
<path d="M136.331 3.02542L125.051 22.5624" stroke="#F5C802" stroke-width="4" stroke-linecap="round"/>
<path d="M74.8057 2L63.526 21.537" stroke="#F5C802" stroke-width="4" stroke-linecap="round"/>
<path d="M197.856 3.02542L186.577 22.5624" stroke="#F5C802" stroke-width="4" stroke-linecap="round"/>
<path d="M44.042 2L32.7623 21.537" stroke="#F5C802" stroke-width="4" stroke-linecap="round"/>
<path d="M167.094 3.02542L155.814 22.5624" stroke="#F5C802" stroke-width="4" stroke-linecap="round"/>
<path d="M105.568 2L94.2887 21.537" stroke="#F5C802" stroke-width="4" stroke-linecap="round"/>
<path d="M228.619 3.02542L217.339 22.5624" stroke="#F5C802" stroke-width="4" stroke-linecap="round"/>
<path d="M28.6611 2L17.3815 21.537" stroke="#F5C802" stroke-width="4" stroke-linecap="round"/>
<path d="M151.712 3.02542L140.432 22.5624" stroke="#F5C802" stroke-width="4" stroke-linecap="round"/>
<path d="M90.1865 2L78.9068 21.537" stroke="#F5C802" stroke-width="4" stroke-linecap="round"/>
<path d="M213.237 3.02542L201.958 22.5624" stroke="#F5C802" stroke-width="4" stroke-linecap="round"/>
<path d="M59.4238 2L48.1442 21.537" stroke="#F5C802" stroke-width="4" stroke-linecap="round"/>
<path d="M182.475 3.02542L171.195 22.5624" stroke="#F5C802" stroke-width="4" stroke-linecap="round"/>
<path d="M120.949 2L109.67 21.537" stroke="#F5C802" stroke-width="4" stroke-linecap="round"/>
<path d="M244 3.02542L232.72 22.5624" stroke="#F5C802" stroke-width="4" stroke-linecap="round"/>
</svg>
