<?xml version="1.0" encoding="UTF-8"?>
<svg id="Isolation_Mode" data-name="Isolation Mode" xmlns="http://www.w3.org/2000/svg" viewBox="0 0 841.89 595.28">
  <defs>
    <style>
      .cls-1, .cls-2 {
        fill: #2b2b2a;
      }

      .cls-2 {
        fill-rule: evenodd;
      }
    </style>
  </defs>
  <path class="cls-1" d="M83.58,188.47h6.51c4.19,0,7.31.52,9.36,1.56,2.04,1.04,3.72,2.73,5.04,5.07,1.32,2.34,1.98,5.07,1.98,8.2,0,2.22-.37,4.27-1.11,6.13-.74,1.86-1.76,3.41-3.06,4.64-1.3,1.23-2.71,2.08-4.22,2.55-1.51.47-4.14.7-7.88.7h-6.61v-28.87h0ZM89.04,193.78v18.22h2.55c2.51,0,4.33-.29,5.46-.86,1.13-.58,2.06-1.55,2.77-2.91.72-1.36,1.08-3.04,1.08-5.03,0-3.06-.86-5.44-2.57-7.13-1.54-1.52-4.02-2.28-7.43-2.28h-1.86ZM109.84,195.99h4.62v2.71c.5-1.06,1.15-1.86,1.97-2.41.82-.55,1.72-.82,2.69-.82.69,0,1.41.18,2.17.55l-1.66,4.62c-.62-.31-1.14-.47-1.54-.47-.82,0-1.51.51-2.08,1.53-.57,1.02-.85,3.02-.85,5.99l.02,1.04v8.61h-5.35v-21.35h0ZM126.86,211.71c.85,0,1.57.29,2.18.89.6.6.9,1.32.9,2.17s-.3,1.58-.9,2.18c-.6.6-1.33.9-2.18.9s-1.58-.3-2.18-.9c-.6-.6-.9-1.33-.9-2.18s.3-1.58.9-2.17c.6-.6,1.33-.89,2.18-.89ZM147.13,188.47h14.32v5.31h-8.85v5.27h8.85v5.31h-8.85v12.99h-5.47v-28.87ZM167.88,187.22c.94,0,1.74.34,2.41,1.02.68.68,1.01,1.49,1.01,2.46s-.33,1.76-1,2.43c-.66.67-1.46,1-2.39,1s-1.76-.34-2.43-1.03c-.68-.68-1.01-1.52-1.01-2.49s.33-1.74,1-2.4c.66-.66,1.47-1,2.41-1h0ZM165.19,195.99h5.35v21.35h-5.35v-21.35ZM174.5,195.99h16.37l-9.62,16.81h9.05v4.54h-17.29l9.62-16.81h-8.13v-4.54ZM193,195.99h16.37l-9.62,16.81h9.05v4.54h-17.29l9.62-16.81h-8.13v-4.54ZM228.18,195.99h5.35v21.35h-5.35v-2.27c-1.04.99-2.1,1.7-3.15,2.14-1.05.44-2.2.66-3.42.66-2.77,0-5.15-1.07-7.17-3.2-2.02-2.13-3.02-4.78-3.02-7.96s.98-5.98,2.93-8.09c1.95-2.1,4.32-3.15,7.1-3.15,1.29,0,2.49.24,3.61.72,1.13.48,2.16,1.2,3.12,2.15v-2.35ZM222.55,200.37c-1.66,0-3.04.58-4.14,1.76-1.1,1.17-1.65,2.67-1.65,4.5s.56,3.36,1.68,4.55c1.12,1.19,2.49,1.78,4.13,1.78s3.08-.58,4.19-1.76c1.11-1.17,1.67-2.7,1.67-4.6s-.56-3.36-1.67-4.51c-1.11-1.15-2.51-1.72-4.21-1.72ZM239.29,187.74h4.95v2.71c0,1.73-.21,3.22-.64,4.46-.42,1.24-1.14,2.53-2.14,3.85l-1.92-1.51c.48-.7.83-1.31,1.06-1.83.23-.52.45-1.2.67-2.05h-1.97v-5.63h0ZM263.25,199.01l-3.31,3.33c-1.34-1.34-2.56-2.01-3.66-2.01-.6,0-1.07.13-1.41.38-.34.25-.51.57-.51.94,0,.29.11.55.32.79.21.24.75.57,1.6.99l1.96.98c2.06,1.01,3.48,2.05,4.26,3.1.77,1.06,1.15,2.29,1.15,3.71,0,1.89-.7,3.47-2.09,4.73-1.39,1.27-3.26,1.9-5.61,1.9-3.11,0-5.6-1.21-7.46-3.65l3.3-3.59c.63.73,1.37,1.33,2.22,1.78.84.45,1.59.68,2.25.68.7,0,1.28-.17,1.71-.51.44-.34.65-.73.65-1.17,0-.82-.78-1.63-2.34-2.41l-1.8-.9c-3.46-1.74-5.19-3.91-5.19-6.51,0-1.68.65-3.12,1.95-4.32,1.3-1.19,2.96-1.79,4.99-1.79,1.39,0,2.69.31,3.91.92,1.22.61,2.25,1.49,3.1,2.63h0Z"/>
  <path class="cls-1" d="M164.45,308.77c0,8.03-2.34,14.84-7.02,20.42-4.68,5.59-10.32,8.38-16.93,8.38h-56.93v-106.54h54.67c6.44,0,12.02,2.29,16.74,6.86,4.72,4.57,7.42,10.57,8.09,17.99.08.61.13,1.22.13,1.83v1.83c0,5.69-1.13,10.69-3.39,15.01-2.26,4.32-5.64,7.7-10.16,10.14,4.6,2.03,8.21,5.13,10.85,9.3,2.63,4.17,3.95,9.09,3.95,14.78h0ZM140.63,264.57c0-3.66-.94-6.81-2.82-9.45-1.88-2.64-4.28-3.96-7.21-3.96h-27.71v25.45l28.84.15c2.59,0,4.72-1.19,6.39-3.58,1.67-2.39,2.51-5.26,2.51-8.61ZM141.75,307.71c0-3.56-.92-6.63-2.76-9.22-1.84-2.59-4.18-3.89-7.02-3.89h-29.59v24.85h30.22c2.68,0,4.87-1.14,6.58-3.43,1.71-2.29,2.57-5.06,2.57-8.31h0ZM254.35,337.58h-42.76c-6.6,0-12.96-1.83-19.06-5.49-6.6-3.94-11.64-10.24-15.11-18.87-3.47-8.61-5.2-18.11-5.2-28.45s1.67-19.54,5.02-27.87c3.68-9.02,8.78-15.62,15.3-19.76,3.59-2.24,7.04-3.81,10.34-4.73,3.3-.91,7.08-1.37,11.35-1.37h39.62v19.05h-36.61c-3.26,0-6,.53-8.21,1.57s-4.41,2.92-6.58,5.61c-2.17,2.69-3.68,5.31-4.51,7.85-.84,2.54-1.25,5.72-1.25,9.5h57.68v19.05h-57.68c0,3.45.38,6.48,1.13,9.07s2.13,5.26,4.1,8c1.96,2.74,4.03,4.83,6.16,6.25,2.15,1.42,4.68,2.13,7.63,2.13h38.66v18.44h0ZM357.42,304.43c0,9.32-2.55,17.17-7.65,23.57-5.1,6.38-11.58,9.58-19.44,9.58h-62.07v-19.05h51.16c3.43,0,6.31-.96,8.65-2.92,2.67-2.24,4.01-5.31,4.01-9.2,0-9.09-5.27-13.64-15.8-13.64h-25.83c-7.44,0-13.96-2.79-19.56-8.36-5.6-5.59-8.4-12.68-8.4-21.29,0-9.53,2.74-17.25,8.21-23.19,5.48-5.92,12.69-8.89,21.63-8.89h59.31v18.29h-52.29c-2.34,0-4.7,1.19-7.08,3.56-2.38,2.39-3.57,5.18-3.57,8.41,0,3.63,1.15,6.68,3.45,9.17,2.3,2.46,5.08,3.71,8.34,3.71h28.46c8.86,0,15.82,2.77,20.88,8.28,5.06,5.54,7.59,12.85,7.59,21.97h0ZM445.82,249.18h-32.73v88.71h-20.31v-88.71h-32.22v-18.14h85.26v18.14h0Z"/>
  <path class="cls-1" d="M83.58,407.21v-33.56h6.96c5.02,0,8.66.41,10.93,1.21,3.26,1.15,5.8,3.12,7.63,5.94,1.83,2.81,2.75,6.16,2.75,10.06,0,3.37-.72,6.32-2.18,8.87-1.45,2.55-3.34,4.45-5.66,5.66-2.32,1.22-5.58,1.82-9.76,1.82h-10.68ZM86.8,404.03h3.87c4.63,0,7.83-.29,9.62-.86,2.52-.83,4.5-2.3,5.94-4.43,1.44-2.14,2.16-4.75,2.16-7.84s-.78-6.01-2.34-8.3c-1.56-2.3-3.74-3.87-6.53-4.72-2.1-.64-5.55-.96-10.35-.96h-2.37v27.11ZM118.4,373.65h19.21v3.27h-15.84v10.52h15.7v3.27h-15.7v13.23h15.7v3.27h-19.07v-33.56h0ZM143.46,407.21v-33.56h.72l22.32,25.67v-25.67h3.37v33.56h-.76l-22.19-25.44v25.44h-3.46ZM174.67,376.93v-3.27h18.37v3.27h-7.48v30.29h-3.41v-30.29h-7.48ZM211.63,373.65l15.66,33.56h-3.61l-5.24-11.03h-14.54l-5.21,11.03h-3.74l15.84-33.56h.84ZM211.21,380.7l-5.77,12.21h11.52l-5.75-12.21ZM232.46,373.65h3.37v30.29h12.95v3.27h-16.31v-33.56ZM298.25,379.85l-2.65,2.03c-1.46-1.9-3.21-3.34-5.26-4.32-2.04-.98-4.28-1.47-6.74-1.47-2.67,0-5.15.65-7.43,1.93-2.28,1.29-4.04,3.01-5.3,5.18-1.25,2.17-1.89,4.61-1.89,7.31,0,4.1,1.4,7.52,4.21,10.25,2.8,2.74,6.34,4.11,10.62,4.11,4.7,0,8.62-1.84,11.79-5.52l2.65,2.01c-1.67,2.13-3.76,3.78-6.26,4.94-2.5,1.16-5.3,1.74-8.38,1.74-5.87,0-10.51-1.96-13.9-5.87-2.84-3.29-4.27-7.28-4.27-11.95,0-4.91,1.72-9.04,5.16-12.39,3.45-3.36,7.77-5.03,12.95-5.03,3.13,0,5.96.62,8.48,1.85,2.52,1.24,4.6,2.97,6.21,5.19h0ZM304.98,373.65h3.37v30.29h12.95v3.27h-16.31v-33.56ZM326.1,373.65h3.37v33.56h-3.37v-33.56ZM337.18,407.21v-33.56h.72l22.32,25.67v-25.67h3.37v33.56h-.76l-22.19-25.44v25.44h-3.46ZM371.23,373.65h3.37v33.56h-3.37v-33.56ZM413.53,379.85l-2.65,2.03c-1.46-1.9-3.21-3.34-5.26-4.32-2.04-.98-4.28-1.47-6.74-1.47-2.67,0-5.15.65-7.43,1.93-2.28,1.29-4.04,3.01-5.3,5.18-1.25,2.17-1.89,4.61-1.89,7.31,0,4.1,1.4,7.52,4.21,10.25,2.8,2.74,6.34,4.11,10.62,4.11,4.7,0,8.62-1.84,11.79-5.52l2.65,2.01c-1.67,2.13-3.76,3.78-6.26,4.94-2.5,1.16-5.3,1.74-8.38,1.74-5.87,0-10.51-1.96-13.9-5.87-2.84-3.29-4.27-7.28-4.27-11.95,0-4.91,1.72-9.04,5.16-12.39,3.45-3.36,7.77-5.03,12.96-5.03,3.13,0,5.96.62,8.48,1.85,2.52,1.24,4.6,2.97,6.21,5.19h0Z"/>
  <path class="cls-1" d="M83.58,360.3v-12.52h1.98c1.15,0,1.98.07,2.52.22.75.2,1.35.57,1.8,1.11.44.54.67,1.18.67,1.91,0,.48-.1.91-.3,1.3s-.53.76-.98,1.1c.76.36,1.31.8,1.67,1.34.35.53.53,1.17.53,1.9s-.18,1.34-.55,1.92c-.37.58-.84,1.01-1.41,1.3-.58.29-1.37.43-2.38.43h-3.52,0ZM85.95,350.04v2.65h.53c.59,0,1.04-.12,1.32-.37.29-.24.43-.58.43-1,0-.39-.14-.7-.41-.94-.27-.23-.69-.35-1.25-.35h-.63ZM85.95,354.82v3.21h.6c1,0,1.68-.12,2.03-.37.35-.25.52-.61.52-1.09,0-.54-.2-.96-.61-1.28s-1.09-.47-2.04-.47h-.5ZM138.64,347.77h6.84v2.34h-4.47v2.25h4.47v2.3h-4.47v3.3h4.47v2.34h-6.84v-12.52ZM250.39,349.48l-1.77,1.56c-.62-.86-1.25-1.29-1.89-1.29-.31,0-.57.08-.77.25-.2.17-.3.36-.3.57s.07.41.21.6c.19.25.78.78,1.75,1.61.91.76,1.46,1.24,1.66,1.44.48.49.83.95,1.03,1.4.2.45.3.93.3,1.46,0,1.03-.35,1.88-1.07,2.55-.71.67-1.64,1-2.78,1-.89,0-1.67-.22-2.33-.65-.66-.44-1.23-1.13-1.7-2.06l2.01-1.21c.6,1.11,1.3,1.66,2.08,1.66.41,0,.76-.12,1.03-.36.28-.24.42-.52.42-.83,0-.28-.11-.57-.32-.85-.21-.28-.67-.72-1.39-1.3-1.37-1.11-2.25-1.97-2.65-2.57-.4-.6-.6-1.21-.6-1.81,0-.87.33-1.61.99-2.23.66-.62,1.48-.93,2.45-.93.63,0,1.22.15,1.78.43.57.29,1.18.82,1.84,1.58h0ZM291.17,347.77h6.92v2.35h-2.28v10.17h-2.42v-10.17h-2.21v-2.35ZM93.43,347.46h1.19v12.84h-1.19v-12.84ZM97.51,347.23c.27,0,.5.1.69.29.19.19.29.43.29.7s-.1.5-.29.69c-.19.19-.42.29-.69.29s-.49-.1-.69-.29c-.19-.19-.29-.42-.29-.69s.1-.51.29-.7c.19-.19.42-.29.69-.29ZM96.92,351.03h1.19v9.26h-1.19v-9.26ZM105.26,352.04l-.77.79c-.64-.62-1.26-.92-1.87-.92-.39,0-.72.13-.99.38-.28.25-.42.55-.42.89,0,.3.11.59.34.86.23.28.71.6,1.43.98.88.46,1.49.9,1.81,1.33.31.43.47.92.47,1.45,0,.76-.27,1.4-.8,1.93-.53.53-1.2.79-2.01.79-.53,0-1.04-.12-1.53-.35-.48-.23-.89-.55-1.21-.96l.75-.85c.61.69,1.26,1.03,1.94,1.03.48,0,.88-.15,1.22-.46.33-.31.5-.67.5-1.08,0-.34-.11-.64-.33-.91-.22-.26-.72-.59-1.5-.99-.84-.43-1.41-.85-1.71-1.27-.3-.42-.45-.89-.45-1.43,0-.7.24-1.28.72-1.75.48-.46,1.09-.69,1.83-.69.85,0,1.71.41,2.58,1.23h0ZM112.03,352.04l-.77.79c-.64-.62-1.26-.92-1.87-.92-.39,0-.72.13-.99.38-.28.25-.42.55-.42.89,0,.3.11.59.34.86.23.28.71.6,1.43.98.88.46,1.49.9,1.81,1.33.31.43.47.92.47,1.45,0,.76-.27,1.4-.8,1.93-.53.53-1.2.79-2.01.79-.53,0-1.04-.12-1.53-.35-.48-.23-.89-.55-1.21-.96l.75-.85c.61.69,1.26,1.03,1.94,1.03.48,0,.88-.15,1.22-.46.33-.31.5-.67.5-1.08,0-.34-.11-.64-.33-.91-.22-.26-.72-.59-1.5-.99-.84-.43-1.41-.85-1.71-1.27-.3-.42-.45-.89-.45-1.43,0-.7.24-1.28.72-1.75.48-.46,1.09-.69,1.83-.69.85,0,1.71.41,2.58,1.23h0ZM117.96,347.47v1.16c-.44-.19-.82-.28-1.13-.28-.24,0-.43.05-.58.14s-.25.2-.29.32c-.04.12-.06.45-.06.97v1.25h1.94v1.03h-1.95v8.23h-1.19v-8.23h-1.22v-1.03h1.22v-1.44c0-.66.06-1.14.18-1.42s.33-.51.63-.68c.29-.17.65-.26,1.06-.26.39,0,.85.08,1.39.24ZM119.44,351.03h1.19v4.32c0,1.05.06,1.78.17,2.18.17.57.5,1.01.98,1.34.48.33,1.05.49,1.72.49s1.23-.16,1.69-.48c.46-.32.78-.74.96-1.26.12-.36.18-1.11.18-2.27v-4.32h1.22v4.54c0,1.28-.15,2.24-.45,2.88-.3.65-.75,1.15-1.35,1.52-.6.37-1.35.55-2.25.55s-1.66-.18-2.26-.55c-.6-.36-1.06-.87-1.35-1.53-.3-.65-.45-1.64-.45-2.95v-4.46h0ZM130.03,347.46h1.19v12.84h-1.19v-12.84ZM156.59,352.96l-.94.59c-.82-1.08-1.94-1.62-3.36-1.62-1.13,0-2.08.36-2.83,1.09-.75.72-1.12,1.6-1.12,2.64,0,.67.17,1.31.52,1.9.34.59.82,1.05,1.42,1.38.6.33,1.27.49,2.02.49,1.37,0,2.48-.54,3.35-1.62l.94.62c-.44.67-1.04,1.18-1.79,1.55-.75.37-1.6.55-2.56.55-1.47,0-2.69-.46-3.66-1.39-.97-.93-1.45-2.06-1.45-3.39,0-.89.23-1.72.68-2.49.45-.77,1.07-1.37,1.86-1.8.79-.43,1.68-.65,2.66-.65.62,0,1.21.09,1.78.28.57.19,1.05.43,1.45.73.4.3.74.68,1.02,1.14h0ZM163.26,350.81c1.43,0,2.61.51,3.55,1.55.85.94,1.28,2.05,1.28,3.34s-.45,2.42-1.35,3.38c-.9.96-2.06,1.45-3.48,1.45s-2.59-.48-3.49-1.45c-.9-.96-1.35-2.09-1.35-3.38s.43-2.39,1.28-3.33c.94-1.04,2.13-1.56,3.56-1.56ZM163.26,351.98c-.99,0-1.84.36-2.55,1.09-.71.73-1.07,1.61-1.07,2.65,0,.67.16,1.29.48,1.87.33.58.76,1.02,1.32,1.33.55.31,1.16.47,1.82.47s1.27-.16,1.82-.47c.55-.31.99-.76,1.32-1.33.32-.58.48-1.2.48-1.87,0-1.04-.36-1.92-1.07-2.65-.71-.73-1.56-1.09-2.55-1.09h0ZM170.29,351.03h1.19v1.66c.48-.63,1.01-1.11,1.59-1.42.58-.31,1.21-.47,1.89-.47s1.31.17,1.85.53c.54.35.94.83,1.19,1.42.26.59.38,1.52.38,2.78v4.76h-1.19v-4.41c0-1.06-.05-1.78-.14-2.13-.15-.61-.41-1.07-.81-1.38-.39-.31-.9-.46-1.53-.46-.72,0-1.37.24-1.94.71-.57.47-.95,1.06-1.13,1.77-.11.46-.17,1.3-.17,2.51v3.39h-1.19v-9.26h0ZM185.32,350.81c1.43,0,2.61.51,3.55,1.55.85.94,1.28,2.05,1.28,3.34s-.45,2.42-1.35,3.38c-.9.96-2.06,1.45-3.48,1.45s-2.59-.48-3.49-1.45c-.9-.96-1.35-2.09-1.35-3.38s.43-2.39,1.28-3.33c.94-1.04,2.13-1.56,3.56-1.56ZM185.31,351.98c-.99,0-1.84.36-2.55,1.09-.71.73-1.07,1.61-1.07,2.65,0,.67.16,1.29.48,1.87.33.58.76,1.02,1.32,1.33.55.31,1.16.47,1.82.47s1.27-.16,1.82-.47c.55-.31.99-.76,1.32-1.33.32-.58.48-1.2.48-1.87,0-1.04-.36-1.92-1.07-2.65-.71-.73-1.56-1.09-2.55-1.09h0ZM192.35,351.03h1.19v1.6c.42-.59.84-1.02,1.28-1.3.6-.35,1.23-.53,1.9-.53.45,0,.87.09,1.28.26.4.17.73.41.99.7.26.29.48.71.67,1.26.4-.73.89-1.28,1.49-1.66.6-.38,1.23-.57,1.92-.57.64,0,1.21.16,1.69.49.49.32.85.77,1.09,1.35.24.58.36,1.45.36,2.6v5.05h-1.22v-5.05c0-.99-.07-1.67-.21-2.05-.14-.37-.38-.67-.73-.9-.34-.23-.75-.34-1.23-.34-.58,0-1.1.17-1.58.51-.48.34-.83.79-1.05,1.36-.22.57-.33,1.51-.33,2.84v3.62h-1.19v-4.74c0-1.12-.07-1.88-.21-2.28s-.38-.72-.73-.96c-.35-.24-.76-.36-1.23-.36-.55,0-1.07.17-1.55.5-.48.33-.83.78-1.06,1.34-.23.56-.35,1.42-.35,2.58v3.92h-1.19v-9.26h0ZM209.12,347.23c.27,0,.5.1.69.29.19.19.29.43.29.7s-.1.5-.29.69c-.19.19-.42.29-.69.29s-.49-.1-.69-.29c-.19-.19-.29-.42-.29-.69s.1-.51.29-.7c.19-.19.42-.29.69-.29ZM208.53,351.03h1.19v9.26h-1.19v-9.26ZM221.2,352.96l-.94.59c-.82-1.08-1.94-1.62-3.36-1.62-1.13,0-2.08.36-2.83,1.09-.75.72-1.12,1.6-1.12,2.64,0,.67.17,1.31.52,1.9.34.59.82,1.05,1.42,1.38.6.33,1.27.49,2.02.49,1.37,0,2.48-.54,3.35-1.62l.94.62c-.44.67-1.04,1.18-1.79,1.55-.75.37-1.6.55-2.56.55-1.47,0-2.69-.46-3.66-1.39-.97-.93-1.45-2.06-1.45-3.39,0-.89.23-1.72.68-2.49.45-.77,1.07-1.37,1.86-1.8.79-.43,1.68-.65,2.66-.65.62,0,1.21.09,1.78.28.57.19,1.05.43,1.45.73.4.3.74.68,1.02,1.14h0ZM232.71,351.03v9.26h-1.19v-1.59c-.5.61-1.06,1.06-1.68,1.37-.62.3-1.3.45-2.04.45-1.31,0-2.43-.47-3.35-1.42-.93-.95-1.39-2.1-1.39-3.46s.47-2.47,1.4-3.41c.93-.94,2.06-1.42,3.37-1.42.76,0,1.44.16,2.06.48.61.32,1.15.8,1.62,1.45v-1.7h1.19,0ZM227.93,351.96c-.66,0-1.28.16-1.83.49-.56.32-1.01.78-1.34,1.37-.33.59-.5,1.21-.5,1.87s.17,1.27.5,1.86c.33.59.78,1.05,1.35,1.38.56.33,1.17.5,1.81.5s1.27-.16,1.85-.49c.58-.33,1.03-.77,1.35-1.33.31-.56.47-1.19.47-1.89,0-1.07-.35-1.96-1.06-2.68-.7-.72-1.57-1.08-2.6-1.08h0ZM235.22,347.46h1.19v12.84h-1.19v-12.84ZM252.78,351.03h1.19v1.6c.42-.59.84-1.02,1.28-1.3.6-.35,1.23-.53,1.9-.53.45,0,.87.09,1.28.26.4.17.73.41.99.7.26.29.48.71.67,1.26.4-.73.89-1.28,1.49-1.66.6-.38,1.23-.57,1.92-.57.64,0,1.21.16,1.69.49.49.32.85.77,1.09,1.35.24.58.36,1.45.36,2.6v5.05h-1.22v-5.05c0-.99-.07-1.67-.21-2.05-.14-.37-.38-.67-.73-.9-.34-.23-.75-.34-1.23-.34-.58,0-1.1.17-1.58.51-.48.34-.83.79-1.05,1.36-.22.57-.33,1.51-.33,2.84v3.62h-1.19v-4.74c0-1.12-.07-1.88-.21-2.28s-.38-.72-.73-.96c-.35-.24-.76-.36-1.23-.36-.55,0-1.07.17-1.55.5-.48.33-.83.78-1.06,1.34-.23.56-.35,1.42-.35,2.58v3.92h-1.19v-9.26h0ZM269.56,347.23c.27,0,.5.1.69.29.19.19.29.43.29.7s-.1.5-.29.69c-.19.19-.42.29-.69.29s-.49-.1-.69-.29c-.19-.19-.29-.42-.29-.69s.1-.51.29-.7c.19-.19.42-.29.69-.29ZM268.97,351.03h1.19v9.26h-1.19v-9.26ZM272.46,347.46h1.19v12.84h-1.19v-12.84ZM283.94,357.23l1.01.53c-.33.64-.71,1.16-1.15,1.56-.43.39-.92.69-1.46.9-.54.21-1.15.31-1.84.31-1.52,0-2.7-.49-3.56-1.48-.85-.99-1.28-2.1-1.28-3.35,0-1.17.36-2.22,1.09-3.13.92-1.17,2.15-1.75,3.68-1.75s2.85.6,3.8,1.79c.67.84,1.01,1.9,1.03,3.16h-8.37c.02,1.07.37,1.95,1.04,2.63.67.69,1.49,1.03,2.47,1.03.47,0,.94-.08,1.38-.24.45-.16.83-.38,1.14-.65s.65-.7,1.02-1.3ZM283.95,354.73c-.16-.64-.39-1.14-.7-1.52-.31-.38-.71-.69-1.22-.92s-1.03-.35-1.58-.35c-.92,0-1.7.29-2.36.87-.48.43-.84,1.06-1.09,1.92h6.94,0ZM299.15,351.03h1.22v1.35c.36-.53.75-.93,1.15-1.19.4-.26.83-.39,1.26-.39.33,0,.68.1,1.06.31l-.62,1c-.25-.11-.46-.16-.63-.16-.4,0-.78.16-1.15.49-.37.33-.65.83-.85,1.52-.15.53-.22,1.59-.22,3.2v3.13h-1.22v-9.26h0ZM314.08,351.03v9.26h-1.19v-1.59c-.5.61-1.06,1.06-1.68,1.37-.62.3-1.3.45-2.04.45-1.31,0-2.43-.47-3.35-1.42-.93-.95-1.39-2.1-1.39-3.46s.47-2.47,1.4-3.41c.93-.94,2.06-1.42,3.37-1.42.76,0,1.45.16,2.06.48.61.32,1.15.8,1.62,1.45v-1.7h1.19ZM309.31,351.96c-.66,0-1.28.16-1.83.49-.56.32-1.01.78-1.34,1.37-.33.59-.5,1.21-.5,1.87s.17,1.27.5,1.86c.33.59.78,1.05,1.35,1.38.56.33,1.17.5,1.81.5s1.27-.16,1.85-.49c.58-.33,1.03-.77,1.35-1.33.31-.56.47-1.19.47-1.89,0-1.07-.35-1.96-1.06-2.68-.7-.72-1.57-1.08-2.6-1.08h0ZM316.77,351.03h1.19v1.66c.48-.63,1.01-1.11,1.59-1.42.58-.31,1.21-.47,1.89-.47s1.31.17,1.85.53c.54.35.94.83,1.19,1.42.26.59.38,1.52.38,2.78v4.76h-1.19v-4.41c0-1.06-.05-1.78-.14-2.13-.15-.61-.41-1.07-.81-1.38-.39-.31-.9-.46-1.53-.46-.72,0-1.37.24-1.94.71-.57.47-.95,1.06-1.13,1.77-.11.46-.17,1.3-.17,2.51v3.39h-1.19v-9.26ZM332.08,352.04l-.77.79c-.64-.62-1.26-.92-1.87-.92-.39,0-.72.13-.99.38-.28.25-.42.55-.42.89,0,.3.11.59.34.86.23.28.71.6,1.43.98.88.46,1.49.9,1.81,1.33.31.43.47.92.47,1.45,0,.76-.27,1.4-.8,1.93-.53.53-1.2.79-2.01.79-.53,0-1.04-.12-1.53-.35-.48-.23-.89-.55-1.21-.96l.75-.85c.61.69,1.26,1.03,1.94,1.03.48,0,.88-.15,1.22-.46.33-.31.5-.67.5-1.08,0-.34-.11-.64-.33-.91-.22-.26-.72-.59-1.5-.99-.84-.43-1.41-.85-1.71-1.27-.3-.42-.45-.89-.45-1.43,0-.7.24-1.28.72-1.75.48-.46,1.09-.69,1.83-.69.85,0,1.71.41,2.58,1.23h0ZM338.01,347.47v1.16c-.44-.19-.82-.28-1.13-.28-.24,0-.43.05-.58.14s-.25.2-.29.32c-.04.12-.06.45-.06.97v1.25h1.94v1.03h-1.95v8.23h-1.19v-8.23h-1.22v-1.03h1.22v-1.44c0-.66.06-1.14.18-1.42s.33-.51.63-.68c.29-.17.65-.26,1.06-.26.39,0,.85.08,1.39.24ZM344.04,350.81c1.43,0,2.61.51,3.55,1.55.85.94,1.28,2.05,1.28,3.34s-.45,2.42-1.35,3.38c-.9.96-2.06,1.45-3.48,1.45s-2.59-.48-3.49-1.45c-.9-.96-1.35-2.09-1.35-3.38s.43-2.39,1.28-3.33c.94-1.04,2.13-1.56,3.56-1.56h0ZM344.04,351.98c-.99,0-1.84.36-2.55,1.09-.71.73-1.07,1.61-1.07,2.65,0,.67.16,1.29.48,1.87.33.58.76,1.02,1.32,1.33.55.31,1.16.47,1.82.47s1.27-.16,1.82-.47c.55-.31.99-.76,1.32-1.33.32-.58.48-1.2.48-1.87,0-1.04-.36-1.92-1.07-2.65-.71-.73-1.56-1.09-2.55-1.09h0ZM350.62,351.03h1.22v1.35c.36-.53.75-.93,1.15-1.19.4-.26.83-.39,1.26-.39.33,0,.68.1,1.06.31l-.62,1c-.25-.11-.46-.16-.63-.16-.4,0-.78.16-1.15.49-.37.33-.65.83-.85,1.52-.15.53-.22,1.59-.22,3.2v3.13h-1.22v-9.26h0ZM356.32,351.03h1.19v1.6c.42-.59.84-1.02,1.28-1.3.6-.35,1.23-.53,1.9-.53.45,0,.87.09,1.28.26.4.17.73.41.99.7.26.29.48.71.67,1.26.4-.73.89-1.28,1.49-1.66.6-.38,1.23-.57,1.92-.57.64,0,1.21.16,1.69.49.49.32.85.77,1.09,1.35.24.58.36,1.45.36,2.6v5.05h-1.22v-5.05c0-.99-.07-1.67-.21-2.05-.14-.37-.38-.67-.73-.9-.34-.23-.75-.34-1.23-.34-.58,0-1.1.17-1.58.51-.48.34-.83.79-1.05,1.36-.22.57-.33,1.51-.33,2.84v3.62h-1.19v-4.74c0-1.12-.07-1.88-.21-2.28s-.38-.72-.73-.96c-.35-.24-.76-.36-1.23-.36-.55,0-1.07.17-1.55.5-.48.33-.83.78-1.06,1.34-.23.56-.35,1.42-.35,2.58v3.92h-1.19v-9.26h0ZM381.9,351.03v9.26h-1.19v-1.59c-.5.61-1.06,1.06-1.68,1.37-.62.3-1.3.45-2.04.45-1.31,0-2.43-.47-3.35-1.42-.93-.95-1.39-2.1-1.39-3.46s.47-2.47,1.4-3.41c.93-.94,2.06-1.42,3.37-1.42.76,0,1.45.16,2.06.48.61.32,1.15.8,1.62,1.45v-1.7h1.19ZM377.13,351.96c-.66,0-1.28.16-1.83.49-.56.32-1.01.78-1.34,1.37-.33.59-.5,1.21-.5,1.87s.17,1.27.5,1.86c.33.59.78,1.05,1.35,1.38.56.33,1.17.5,1.81.5s1.27-.16,1.85-.49c.58-.33,1.03-.77,1.35-1.33.31-.56.47-1.19.47-1.89,0-1.07-.35-1.96-1.06-2.68-.7-.72-1.57-1.08-2.6-1.08h0ZM385.62,347.58h1.19v3.45h1.88v1.03h-1.88v8.23h-1.19v-8.23h-1.62v-1.03h1.62v-3.45ZM390.92,347.23c.27,0,.5.1.69.29.19.19.29.43.29.7s-.1.5-.29.69c-.19.19-.42.29-.69.29s-.49-.1-.69-.29c-.19-.19-.29-.42-.29-.69s.1-.51.29-.7c.19-.19.42-.29.69-.29ZM390.32,351.03h1.19v9.26h-1.19v-9.26ZM398.38,350.81c1.43,0,2.61.51,3.55,1.55.85.94,1.28,2.05,1.28,3.34s-.45,2.42-1.35,3.38c-.9.96-2.06,1.45-3.48,1.45s-2.59-.48-3.49-1.45c-.9-.96-1.35-2.09-1.35-3.38s.43-2.39,1.28-3.33c.94-1.04,2.13-1.56,3.56-1.56h0ZM398.38,351.98c-.99,0-1.84.36-2.55,1.09-.71.73-1.07,1.61-1.07,2.65,0,.67.16,1.29.48,1.87.33.58.76,1.02,1.32,1.33.55.31,1.16.47,1.82.47s1.27-.16,1.82-.47c.55-.31.99-.76,1.32-1.33.32-.58.48-1.2.48-1.87,0-1.04-.36-1.92-1.07-2.65-.71-.73-1.56-1.09-2.55-1.09h0ZM405.41,351.03h1.19v1.66c.48-.63,1.01-1.11,1.59-1.42.58-.31,1.21-.47,1.89-.47s1.31.17,1.85.53c.54.35.94.83,1.19,1.42.26.59.38,1.52.38,2.78v4.76h-1.19v-4.41c0-1.06-.05-1.78-.14-2.13-.15-.61-.41-1.07-.81-1.38-.39-.31-.9-.46-1.53-.46-.72,0-1.37.24-1.94.71-.57.47-.95,1.06-1.13,1.77-.11.46-.17,1.3-.17,2.51v3.39h-1.19v-9.26Z"/>
  <path class="cls-2" d="M680.98,378.61c.38-.51.03-4.77-.19-5.59-.1-.38-.25-.64-.33-1.03-.28-1.48-.08-3.17-.58-4.62-.47-1.36-.25-2.89-.77-4.43-.24-.72-.27-1.5-.34-2.25-.08-.9-.38-1.4-.55-2.19-.25-1.11-.28-1.95-.65-3.19-.1-.32-.14-.73-.22-1.16-.23-1.34-.71-2.88-1-4.16-.18-.8-.41-1.26-.58-2.02-.07-.33-.12-.79-.2-1.07-.12-.41-.29-.49-.43-.91-.3-.87-.16-1.16-.58-2.04-.38-.8-1.55-4.9-2.18-5.75-.3-.4-.24-.32-.37-.88-.14-.58-.13-.45-.43-.92-.25-.38-.22-.49-.35-.88-.28-.84-2.68-5.16-3.22-5.94-.77-1.12-1.3-2.18-2.2-3.12-1.15-1.21-3.32-3.67-4.63-4.41-.76-.43-1.76-1.25-2.47-1.49-.28-.1-.58-.14-.95-.28-1.19-.47-1.07-.7-3.4-.7-4.39,0-3.51.47-5.23.86-.98.22-.54.19-1.16.56-.43.26-.67.17-1.09.51-1.5,1.24-3.14,2.05-4.69,3.85-.1.12-.1.12-.18.19l-.85.89c-.15.13-.12.09-.25.24-1.19,1.41-2.33,2.84-3.3,4.38-.54.86-1.53,2.26-1.95,3.14-.29.61-.27.62-.61,1.11-.37.55-.82,1.66-1.06,2.27-.26.67-.43.59-.63,1.11-.31.79-.13.53-.55,1.18l-.99,2.35c-.21.76-.35.62-.57,1.17-.17.42-.21.97-.42,1.31-.34.56-.33.28-.53,1.21-.17.8-.27.64-.52,1.2-.22.49-.18.89-.35,1.38-.2.56-.36.49-.53,1.21-.26,1.11-.61,1.56-.8,2.56-.34,1.76-1.11,3.59-1.47,5.32l-1.31,5.5c-.33.99-.27,1.92-.52,2.97-.3,1.25-.38,1.29-.56,2.73-.14,1.11-.5,1.72-.61,2.86-.13,1.27-.2,1.67-.56,2.8-.3.94-.14,2.08-.47,2.99-.42,1.13-.35,1.7-.62,2.73-.15.6-.35.65-.49,1.25-.12.51-.11.97-.24,1.5-.14.57-.31.58-.48,1.11-.14.45-.14,1.01-.31,1.43-.2.49-.37.5-.53,1.21-.16.72-.19.65-.52,1.2-.48.81-.72,1.49-1.29,2.18-.37.45-.33.47-.87.86-.76.56-1.12.54-2.11.54-1.22,0-3.01-1.83-3.63-2.74-.46-.68-.83-1.2-1.28-1.81l-1.19-2.03c-.35-.63-.78-1.39-1.12-1.97-.2-.35-.25-.7-.5-1.11-.29-.48-.3-.53-.51-1.11-.18-.48-.36-.49-.54-.93-.27-.63-.05-.54-.48-1.13-.41-.56-.24-.58-.48-1.13-.21-.5-.39-.45-.58-1.03l-1.45-3.26c-.4-1.22-.59-1.3-.86-2.23-.14-.49-.32-.7-.5-1.1-.17-.38-.26-.85-.41-1.21-.19-.46-.34-.66-.49-1.11l-1.74-4.58c-.19-.54-.3-.47-.49-1-.19-.52-.17-.77-.41-1.19-.48-.83-1-2.59-1.33-3.37-.24-.56-.39-.39-.56-1.06-.19-.74-.07-.57-.46-1.15-.36-.54-.26-.67-.42-1.19-.14-.44-.38-.6-.53-.96-.19-.47-.11-.7-.39-1.2-.52-.94-.98-2.32-1.34-3.38l-1.78-4.53c-.46-.88-.91-2.59-1.29-3.52-.18-.44-.37-.5-.51-.98-.17-.55-.03-.65-.38-1.23-.33-.55-.3-.51-.47-1.15-.19-.74-.28-.61-.5-1.1-.19-.43-.18-.79-.33-1.16-.23-.58-.38-.41-.57-1.04-.18-.6-.1-.67-.41-1.2-.31-.54-.32-1.17-.62-1.74-.12-.22-.15-.17-.28-.45-.17-.35-.2-.85-.35-1.26-.17-.46-.35-.56-.51-1.11-.16-.54-.16-.73-.39-1.21-.67-1.42-1.03-3.19-1.69-4.62-.16-.36-.24-.69-.36-1.12-.17-.62-.29-.66-.47-1.14-.16-.41-.2-.85-.34-1.27-.16-.48-.34-.56-.5-1.1l-.79-2.3c-.26-1.22-.59-1.27-.81-2.42-.12-.64-.19-.55-.46-1.03-.29-.51-.21-.73-.35-1.25-.13-.49-.35-.69-.49-1.12-.13-.38-.21-.91-.34-1.28-.18-.48-.32-.52-.45-1.01-.35-1.25-.64-2.52-1.15-3.69-.88-2-1.5-5.24-2.23-7.18-.19-.5-.32-.56-.44-1.15-.1-.48-.13-.88-.31-1.31-.17-.4-.31-.6-.42-1.05-.11-.46-.1-.94-.28-1.35-.79-1.84-.43-1.75-.74-2.46-.67-1.53-.36-1.54-.7-2.4-.16-.41-.39-.63-.5-1.11-.09-.41-.09-.96-.24-1.39-.17-.48-.31-.45-.46-1.02-.13-.51-.13-.88-.23-1.38-.12-.56-.3-.69-.46-1.16-.3-.9-.09-1.12-.63-2.44-.22-.54-.17-.77-.27-1.34l-2.96-12.87c-.17-1.03-.12-1.73-.42-2.7-.33-1.05-.32-1.64-.46-2.76-.12-1.01-.41-1.71-.53-2.54-.14-.98-.16-1.95-.24-2.97-.08-.99-.43-1.69-.51-2.61-.08-.99-.09-2.06-.17-3-.09-.95-.05-2.05-.12-3.03l-.25-4.85c0-.53.14-1.07.17-1.5l.28-4.57c.06-1.36.09-1.57.47-2.71.32-.96.16-1.9.59-2.76.37-.73.43-1.67.81-2.41.2-.39.25-.71.42-1.18.36-.97,1.63-3.31,2.17-4.28.27-.49.4-.59.67-1.06.27-.47.35-.52.67-.94.27-.35.4-.54.72-.89.59-.66.95-1.06,1.58-1.64.79-.72,1.78-1.58,2.8-2.03l1.14-.59c.41-.22.84-.18,1.3-.29.57-.14.63-.33,1.16-.46,1.49-.36,4.54-.2,5.91.31.95.35,1.94.14,2.73.62.49.3.56.28,1.2.41l2.34.88c.54.25.48.3,1.1.52l2.22.99c.44.2.53.38,1.03.58l17.49,10.25c.34.23.65.36.99.62.44.34.64.26,1.07.54.44.28.34.32.97.63.58.28.47.42,1.05.68.63.28,1.5.84,2.03,1.2.64.43,1.55.78,2.22,1.12.44.23.47.37,1,.62l2.18,1.03c.46.24.43.38,1.01.59.55.2,1.73.74,2.19,1.04.33.21,1.86.94,2.26,1.08.67.24.59.11,1.1.51.54.42.55.19,1.15.46.59.27.23.35,1.07.55.77.19.54.13,1.13.47.39.22.76.25,1.22.39.49.16.62.35,1.1.52.42.15.82.16,1.25.35.63.28.42.34,1.24.5,1.01.19,1.57.53,2.49.73l2.55.68c1.88.41,3.48.78,5.55,1.02.92.11,1.78.31,2.74.44,2.76.39,9.97.47,12.62-.08l8.13-1.66c.8-.29,1.81-.4,2.48-.73.49-.24.6-.28,1.18-.43l1.22-.52c.48-.21.77-.16,1.22-.39.49-.25.41-.32,1.11-.51.84-.23.56-.3,1.06-.56.5-.26.68-.08,1.23-.51l2.08-1.14c.7-.26.43-.14,1.06-.56l2.06-1.15c1.01-.54,4.16-2.47,4.98-3.19.92-.81,1.87-1.31,2.83-2.12l.92-.68c.19-.18.16-.21.36-.39.4-.35,1.08-.77,1.33-1.28-.71-.44-.55.12-1.42.44-.89.32-.95.57-1.55.8-.66.25-.91.56-1.58.79-.81.27-.68.46-1.6.75-.72.23-.65.49-1.61.75l-6.87,2.53c-2.22.83-7.38,1.7-9.82,1.94-3.8.38-10.14.47-13.55-.46-2.12-.58-3.59-.57-6.68-1.62-.51-.17-1.02-.22-1.55-.42l-4.38-1.81c-.39-.19-2.22-.9-2.81-1.28-1.08-.69-3.1-1.48-4.04-2.15-.8-.56-1.75-.97-2.58-1.51-1.68-1.09-3.45-2-5.04-3.26l-13.03-9.63c-.37-.33-.76-.67-1.09-.89l-3.49-2.7c-.76-.69-1.49-1.31-2.37-1.84-.51-.31-.64-.51-1.15-.83l-1.71-1.38c-1.27-.91-2.89-2.28-4.14-3.04-.21-.13-.39-.2-.62-.37l-4.42-2.89c-.37-.21-.24-.2-.59-.41-.27-.17-.41-.17-.66-.33-.29-.18-.31-.28-.55-.44-.3-.19-.42-.15-.77-.34-.34-.19-.27-.24-.59-.41-.22-.12-.39-.12-.69-.3-.28-.17-.26-.24-.58-.41-.22-.11-.55-.2-.78-.33l-1.42-.68c-.56-.22-.68-.46-1.41-.69-.69-.22-.64-.45-1.31-.66l-1.51-.59c-.48-.17-1.06-.18-1.59-.41-2.23-.94-6.41-1.57-8.81-1.57-2.14,0-4.03.07-6.22.33-1.85.23-4.29.99-6.09,1.58-.53.17-.69.39-1.29.57l-1.38.6c-.62.33-1.99.8-2.59,1.25l-2.85,1.85c-.27.18-.36.19-.6.38-.2.16-.32.29-.55.45-.02.01-.28.19-.29.2-1.4,1.17-3.09,2.55-4.11,4.07-.25.37-.18.2-.41.46-.2.22-.21.32-.37.61-.69,1.21-1.53,2.13-2.22,3.61l-2.25,5.42c-.15.57-.42.78-.57,1.29-.17.56-.09,1.15-.34,1.65-.63,1.27-.34,1.99-.73,3.1-.53,1.51-.46,1.67-.58,3.26-.2,2.59-.72,2.2-.7,6.83,0,2.4-.24,5.08-.02,7.44.21,2.34-.14,5.13.33,7.36.4,1.94.3,5.25.88,6.78.48,1.29.2,3.15.78,4.91.17.52.22,1.05.28,1.73.14,1.4.45,1.96.65,3.18.08.48.09,1.09.18,1.65.1.6.35.93.48,1.53.37,1.68.8,4.72,1.32,6.34.55,1.7.88,4.52,1.45,6.23.21.65.29.77.4,1.43.35,2.09,1.22,3.9,1.58,5.98.15.86.33.78.55,1.45.15.45.12,1.11.3,1.57.23.58.42.53.57,1.43.12.68.11.94.39,1.44.4.69.26.81.45,1.54.15.59.41.75.56,1.3.15.56.13,1,.42,1.56.33.63.28.68.44,1.4.15.67.4.87.57,1.43.19.62.18.95.39,1.47.24.6.32.79.5,1.48l1.95,5.73c.28.6.26.78.45,1.41.18.56.43.75.58,1.38.19.74.13.7.49,1.37.29.54.25,1.04.45,1.54.19.5.39.58.58,1.27.24.87.35.74.62,1.37.21.5.12.87.45,1.41.38.63.3.69.54,1.45.2.64.4.63.58,1.26l4.84,12.38c.18.31.14.12.32.54.13.31.14.47.23.77.21.73.46.6.65,1.33.23.91.19.56.58,1.29.25.47.23.79.6,1.37l4.07,9.3c.22.59.43.86.65,1.33l2.08,4.6c.17.29.16.33.3.7l2.51,5.17c1.16,1.94,2.02,4.37,3.17,6.36.28.48.36.96.61,1.37l.62,1.24c.27.52,1.08,1.74,1.33,2.39.13.34.11.38.31.68.52.78.83,1.75,1.34,2.51l6.09,11.12c.38.49.4.82.69,1.29.34.55.84,1.05,1.15,1.7.62,1.26,1.74,2.91,2.51,4.17l5.38,8.12c.21.25.23.2.44.55l6.09,7.16c.29.3.26.14.55.44.76.77,3,2.35,4.02,2.68.42.14,1.17.23,1.67.32.78.14,2.47-.06,3.1-.51.21-.15.21-.21.5-.38.65-.39,1.07-.82,1.61-1.35.94-.92,1.35-1.79,1.91-2.79,1.21-2.12.8-1.65,1.58-3.26l1.08-2.74c.21-.53.23-.99.47-1.52.42-.91.59-2.04.97-2.87.24-.52.21-1.07.31-1.56.14-.64.44-.78.57-1.4.13-.6.08-1.01.23-1.63.17-.72.43-.78.54-1.45.09-.54.08-1.1.21-1.63.15-.61.39-.85.49-1.5.09-.57.08-1.05.21-1.66.14-.66.4-.76.53-1.43.12-.63.1-1.06.25-1.62.17-.62.37-.78.52-1.49.4-1.93,1.19-3.92,1.66-5.87l3.05-8.48,1.27-2.56c.26-.72.14-.63.57-1.29.28-.43.28-.82.65-1.34.38-.55.33-.86.55-1.3.2-.38.22-.22.41-.59l1.67-3.15c.37-.79,1.05-1.67,1.46-2.38.31-.54.45-.63.74-1.11.55-.9,1.41-1.81,2.16-2.67l2.38-2.45c.28-.23.67-.58.99-.87.5-.46.56-.42,1.16-.82,2.46-1.66,6.55-2.39,9.47-.68l1.25.74c.77.63,1.25.66,2.16,1.67.73.81,1.67,1.57,2.31,2.52.22.32.13.23.37.5.91,1.01,3.52,5.26,4.09,6.56.11.25.12.37.25.61.14.26.23.31.38.62.32.65.25.71.66,1.31.23.34.36.88.6,1.26.33.53.3.86.58,1.4l.59,1.27c.21.71.39.62.62,1.37.19.62.31.78.55,1.3l2.46,7.19c.28,1.14.68,1.81.89,2.94.17.92.35.7.56,1.3.18.55.12,1.12.33,1.65.23.6.36.6.5,1.36.1.52.01,1.27.58,1.35h0Z"/>
  <path class="cls-2" d="M658.83,214.6c-7.16.69-10.18.48-17-.15-1.22-.11-2.05-.4-3.25-.44-.64-.02-.67.06-1,.37.2.62,3.81,2.73,4.76,3.22.77.4,1.35.88,2.16,1.22.32.14.42.26.74.42l1.58.74c.53.14,2,.92,3.26,1.26.43.12.51.2.82.33,2.33.96,6.98,1.76,9.54,1.75,1.46,0,3.07.23,4.45.1l3.71-.36c2.37-.23,6.42-1.42,8.77-2.11,2.07-.61,7.82-2.78,9.71-3.84,1.04-.58,4.65-2.04,5.46-2.63.63-.46,1.07-.48,1.75-.9.65-.41,1.15-.5,1.84-.94l7.35-3.37c1.3-.49,4.9-1.79,6.11-2.06,3.06-.68,6.34-1.07,9.38-.87,1.23.08,3.51.66,4.61,1.12.36.15.51.26.88.4,2.11.79,4.63,3.21,5.86,4.97l.92,1.47c.25.55.22.33.5.69.3.39,1.08,2.3,1.15,2.45.21.4.27.38.43.88.09.29.18.66.29.93.54,1.41.48,1.57.89,2.86.19.58.3,1.41.42,2.01,1.02,5.13,1.55,10.67,1.55,16.03,0,8.61-.22,15.21-1.4,23.78-.33,2.4-.82,6.52-1.41,8.74-.18.69-.26,1.46-.35,2.18-.1.84-.37,1.4-.51,2.1-.16.79-.12,1.46-.36,2.18-.27.81-.4,1.14-.52,2.12-.14,1.13-.33,1.14-.57,1.97-.16.57-.21,1.46-.41,2.11-.28.92-.35.93-.53,2.01-.14.81-.43,1.27-.6,2.03-.19.87-.24,1.2-.54,2l-1.73,6.11c-.31,1.2-.71,2.68-1.13,3.94-.23.68-.41,1.17-.62,1.91l-1.3,3.9c-.09.36-.11.61-.28.99-.47,1.05-.37,1.21-.67,1.98-.11.29-.31.54-.42.86-.33.89-.18.82-.7,1.97-.19.41-.18.63-.28.98-.11.39-.25.53-.4.89-.8,1.87-1.25,3.8-2.08,5.66-1.02,2.29-1.89,5.09-2.9,7.53-.12.28-.29.56-.41.87-.11.29-.17.63-.3.98-.15.38-.27.45-.43.83-.11.27-.19.7-.31.96-.14.33-.28.4-.46.83-.15.36-.11.54-.33.94l-3.22,7.24c-.3.61-.54,1.32-.8,1.89-.55,1.22-1.03,2.31-1.58,3.53l-.8,1.75c-.12.31-.19.6-.36.92-.19.36-.3.43-.48.93-.57,1.52-1.45,2.96-2.12,4.39-.15.31-.2.57-.37.9l-.92,1.78c-.25.42-.2.5-.36.9l-7.74,15.67c-.81,1.31-1.44,2.99-2.16,4.36l-2.63,5.18c-.16.31-.23.64-.36.91-.37.76-1.07,1.78-1.38,2.58l-3.52,6.97c-.68,1.73-2.48,4.37-2.33,5.96.53.09,1.5-1.14,2-1.55,1.58-1.3,7.44-8.49,8.73-10.07l4.09-5.22c1.34-1.82,2.77-3.56,3.99-5.44l4.56-6.65c.95-1.24,5.11-7.71,5.86-9.06l1.41-2.31c.5-.89,1.05-1.52,1.44-2.29.21-.41.07-.24.32-.57l.68-1.12c.14-.23.25-.3.41-.61l6.04-10.64c.13-.26.18-.4.29-.6l1.09-1.75c1.56-2.75,2.94-5.83,4.43-8.62l3.69-7.31c.59-.98,3.61-7.6,4.1-8.81l1.13-2.57c.26-.51.33-.94.54-1.37.57-1.16,1.09-2.67,1.73-3.76l2.18-5.21c.25-.51.31-.97.5-1.4.79-1.78,1.43-3.47,2.07-5.32l3.4-9.44c.22-.45.3-1.05.43-1.48.16-.52.41-.72.55-1.23.18-.67.11-.94.39-1.5.55-1.12.94-2.96,1.31-4.15.4-1.28,1.11-3.06,1.24-4.28.13-1.18.04-2.23.52-3.17.21-.4.46-.83.54-1.26.2-1.06-.18-1-.29-1.49-.1-.47.27-.76.46-1.17.3-.64.45-.67.76-1.18.59-.97.41-1.79.76-2.91l1.2-6.13c.12-1.05.5-1.62.64-3.02.13-1.31.22-1.83.55-3.03.24-.87.23-2.45.32-3.3.35-3.27.52-2.53.64-6.61.03-1.01.18-2.41.18-3.48,0-3.83.2-9.99-.49-13.63-.14-.73-.33-1.35-.39-2.15-.2-2.55-.58-2.57-.76-4.22-.13-1.16-.13-1.16-.49-2.09-.24-.63-.24-1.47-.44-2.12-.23-.73-.4-.96-.57-1.84-.22-1.1-2.2-6.15-2.76-7.24-.3-.58-.51-1.11-.81-1.7l-5.01-7.39c-1.33-1.57-4.1-3.98-5.9-5.05-.36-.21-.46-.22-.82-.45-1.23-.81-3.53-1.78-5.06-2.12-.71-.16-1.42-.43-1.9-.51-1.62-.26-2.49-.43-4.22-.47-2.56-.06-3.5-.23-6.16.03-1.5.15-3.03.71-4.55,1.01-4.59.92-9.95,3.5-14.13,5.83l-3.52,2.02c-.42.24-.52.39-.85.59-.44.27-.57.15-.97.49-1.07.9-.85.46-1.66,1.11-.44.35-.5.28-.94.51-.44.23-.36.32-.84.61-1.76,1.04-6.11,3.8-7.87,4.65-.53.26-.48.26-.9.55-.31.21-.67.33-.96.49-.88.47-1.81,1.16-2.69,1.55-.91.4-1.13.71-1.9,1-1.32.5-2.54,1.37-3.87,1.82-.84.28-1.24.61-1.94.84-2.27.75-4.06,1.55-6.5,2.19-3.09.81-6.36,1.68-9.55,1.99h0Z"/>
</svg>