<?xml version="1.0" standalone="no"?>
<!DOCTYPE svg PUBLIC "-//W3C//DTD SVG 20010904//EN"
 "http://www.w3.org/TR/2001/REC-SVG-20010904/DTD/svg10.dtd">
<svg version="1.0" xmlns="http://www.w3.org/2000/svg"
 width="501.000000pt" height="500.000000pt" viewBox="0 0 501.000000 500.000000"
 preserveAspectRatio="xMidYMid meet">

<g transform="translate(0.000000,500.000000) scale(0.100000,-0.100000)"
fill="#000000" stroke="none">
<path d="M990 1800 l0 -350 85 0 85 0 0 350 0 350 -85 0 -85 0 0 -350z"/>
<path d="M1300 1800 l0 -350 75 0 75 0 0 215 c0 118 4 215 8 215 5 0 96 -99
203 -219 176 -199 197 -220 227 -220 l32 -1 0 355 0 355 -75 0 -75 0 -2 -172
-3 -173 -148 173 -149 172 -84 0 -84 0 0 -350z"/>
<path d="M2050 1799 l0 -351 188 4 c185 3 188 3 252 34 90 42 134 84 172 162
31 62 33 74 33 167 0 116 -18 167 -79 228 -81 81 -178 107 -408 107 l-158 0 0
-351z m333 210 c105 -29 161 -155 126 -284 -27 -98 -102 -148 -216 -143 l-68
3 -3 212 c-2 195 -1 212 15 216 34 9 108 7 146 -4z"/>
<path d="M2800 1800 l0 -350 230 0 230 0 0 65 0 65 -145 0 -145 0 0 80 0 80
125 0 126 0 -3 63 -3 62 -122 3 -123 3 0 74 0 75 125 0 125 0 0 65 0 65 -210
0 -210 0 0 -350z"/>
<path d="M3327 2093 c20 -32 70 -109 110 -171 40 -62 73 -116 73 -121 0 -4
-46 -80 -103 -167 -57 -87 -107 -165 -111 -171 -5 -10 14 -13 86 -13 l94 0 60
103 c33 56 64 102 69 102 5 0 36 -45 70 -100 l62 -100 106 -3 106 -3 -107 168
c-60 92 -111 173 -115 179 -4 6 26 63 66 125 40 63 90 140 110 172 l37 57 -93
0 -93 0 -58 -100 c-32 -55 -61 -100 -65 -100 -4 0 -36 45 -70 100 l-62 100
-105 0 -104 0 37 -57z"/>
<path d="M1040 1175 c0 -50 4 -85 10 -85 6 0 10 18 10 39 0 39 1 40 38 44 l37
4 -37 1 c-35 2 -38 4 -38 32 0 28 3 30 35 30 19 0 35 5 35 10 0 6 -20 10 -45
10 l-45 0 0 -85z"/>
<path d="M1200 1175 l0 -85 45 0 c25 0 45 5 45 10 0 6 -16 10 -35 10 l-35 0 0
75 c0 43 -4 75 -10 75 -6 0 -10 -35 -10 -85z"/>
<path d="M1360 1175 l0 -85 50 0 c28 0 50 5 50 10 0 6 -18 10 -40 10 -38 0
-40 2 -40 29 0 27 4 30 38 34 l37 4 -37 1 c-35 2 -38 4 -38 32 0 28 3 30 35
30 19 0 35 5 35 10 0 6 -20 10 -45 10 l-45 0 0 -85z"/>
<path d="M1530 1175 l0 -85 50 0 c28 0 50 5 50 10 0 6 -18 10 -40 10 -38 0
-40 2 -40 29 0 27 4 30 38 34 l37 4 -37 1 c-35 2 -38 4 -38 32 0 28 3 30 35
30 19 0 35 5 35 10 0 6 -20 10 -45 10 l-45 0 0 -85z"/>
<path d="M1680 1250 c0 -5 11 -10 25 -10 24 0 25 -2 25 -75 0 -60 3 -75 15
-75 12 0 15 15 15 75 0 73 1 75 25 75 14 0 25 5 25 10 0 6 -28 10 -65 10 -37
0 -65 -4 -65 -10z"/>
<path d="M2011 1238 c-5 -13 -21 -49 -35 -82 -30 -66 -29 -66 -16 -66 5 0 16
14 25 30 13 24 22 30 49 30 29 0 36 -5 45 -30 5 -16 16 -30 24 -30 11 0 6 20
-21 85 -36 87 -55 104 -71 63z m49 -74 c0 -2 -11 -4 -25 -4 -28 0 -32 18 -14
52 11 20 12 20 25 -12 8 -18 14 -34 14 -36z"/>
<path d="M2170 1175 c0 -69 3 -85 15 -85 12 0 15 14 15 66 l0 65 56 -65 c30
-36 57 -66 60 -66 2 0 4 38 4 85 0 95 -17 117 -22 28 l-3 -58 -45 57 c-25 31
-53 57 -62 57 -16 1 -18 -10 -18 -84z"/>
<path d="M2390 1175 l0 -85 46 0 c37 0 51 5 75 29 63 64 19 141 -81 141 l-40
0 0 -85z m102 48 c22 -20 23 -70 1 -95 -9 -10 -30 -18 -50 -18 l-33 0 0 65 0
65 32 0 c17 0 40 -7 50 -17z"/>
<path d="M2690 1175 l0 -85 50 0 c28 0 50 5 50 10 0 6 -16 10 -35 10 l-35 0 0
75 c0 60 -3 75 -15 75 -12 0 -15 -16 -15 -85z"/>
<path d="M2850 1175 l0 -85 56 0 c34 0 53 4 49 10 -3 6 -22 10 -41 10 -31 0
-34 3 -34 29 0 26 4 30 33 34 l32 4 -32 1 c-30 2 -33 5 -33 32 0 27 3 30 29
30 17 0 33 5 36 10 4 6 -13 10 -44 10 l-51 0 0 -85z"/>
<path d="M3051 1197 c-16 -35 -32 -73 -35 -85 -11 -34 13 -27 25 8 9 25 16 30
45 30 27 0 36 -6 49 -30 17 -32 41 -42 31 -12 -31 86 -63 152 -74 152 -7 0
-26 -28 -41 -63z m59 -19 c0 -13 -8 -18 -26 -18 -21 0 -25 3 -19 18 4 9 10 26
13 36 5 18 6 18 19 1 7 -11 13 -27 13 -37z"/>
<path d="M3236 1244 c-9 -8 -16 -21 -16 -28 0 -17 29 -42 63 -55 17 -7 27 -18
27 -30 0 -24 -32 -36 -60 -21 -16 9 -20 8 -20 -5 0 -11 11 -15 39 -15 40 0 71
20 71 45 0 15 -42 51 -71 60 -23 8 -25 40 -3 49 8 3 26 3 40 0 14 -4 24 -2 24
5 0 17 -76 13 -94 -5z"/>
<path d="M3410 1175 c0 -50 4 -85 10 -85 6 0 10 35 10 85 0 50 -4 85 -10 85
-6 0 -10 -35 -10 -85z"/>
<path d="M3510 1175 c0 -50 4 -85 10 -85 6 0 10 29 10 68 l0 67 38 -45 c20
-24 47 -56 59 -70 l22 -25 1 88 c0 97 -17 121 -22 30 l-3 -58 -45 58 c-25 31
-50 57 -57 57 -10 0 -13 -23 -13 -85z"/>
<path d="M3739 1231 c-38 -38 -38 -74 1 -112 26 -26 36 -30 77 -27 l48 3 3 43
c2 25 -1 42 -7 42 -6 0 -11 -16 -11 -35 0 -34 -1 -35 -38 -35 -47 0 -72 24
-72 67 0 44 30 67 80 60 40 -5 63 6 34 17 -39 15 -86 6 -115 -23z"/>
</g>
</svg>
