<svg width="94" height="94" viewBox="0 0 94 94" fill="none" xmlns="http://www.w3.org/2000/svg">
<circle cx="5.22222" cy="5.22222" r="5.22222" transform="matrix(-1 0 0 1 94 83.5555)" fill="#D9D9D9"/>
<circle cx="5.22222" cy="5.22222" r="5.22222" transform="matrix(-1 0 0 1 94 41.7778)" fill="#D9D9D9"/>
<circle cx="5.22222" cy="5.22222" r="5.22222" transform="matrix(-1 0 0 1 94 62.6667)" fill="#D9D9D9"/>
<circle cx="5.22222" cy="5.22222" r="5.22222" transform="matrix(-1 0 0 1 94 20.8889)" fill="#D9D9D9"/>
<circle cx="5.22222" cy="5.22222" r="5.22222" transform="matrix(-1 0 0 1 94 0)" fill="#D9D9D9"/>
<circle cx="5.22222" cy="5.22222" r="5.22222" transform="matrix(-1 0 0 1 73.1111 83.5555)" fill="#D9D9D9"/>
<circle cx="5.22222" cy="5.22222" r="5.22222" transform="matrix(-1 0 0 1 73.1111 41.7778)" fill="#D9D9D9"/>
<circle cx="5.22222" cy="5.22222" r="5.22222" transform="matrix(-1 0 0 1 73.1111 62.6667)" fill="#D9D9D9"/>
<circle cx="5.22222" cy="5.22222" r="5.22222" transform="matrix(-1 0 0 1 73.1111 20.8889)" fill="#D9D9D9"/>
<circle cx="5.22222" cy="5.22222" r="5.22222" transform="matrix(-1 0 0 1 73.1111 0)" fill="#D9D9D9"/>
<circle cx="5.22222" cy="5.22222" r="5.22222" transform="matrix(-1 0 0 1 31.3334 83.5555)" fill="#D9D9D9"/>
<circle cx="5.22222" cy="5.22222" r="5.22222" transform="matrix(-1 0 0 1 31.3334 41.7778)" fill="#D9D9D9"/>
<circle cx="5.22222" cy="5.22222" r="5.22222" transform="matrix(-1 0 0 1 31.3334 62.6667)" fill="#D9D9D9"/>
<circle cx="5.22222" cy="5.22222" r="5.22222" transform="matrix(-1 0 0 1 31.3334 20.8889)" fill="#D9D9D9"/>
<circle cx="5.22222" cy="5.22222" r="5.22222" transform="matrix(-1 0 0 1 31.3334 0)" fill="#D9D9D9"/>
<circle cx="5.22222" cy="5.22222" r="5.22222" transform="matrix(-1 0 0 1 52.2222 83.5555)" fill="#D9D9D9"/>
<circle cx="5.22222" cy="5.22222" r="5.22222" transform="matrix(-1 0 0 1 52.2222 41.7778)" fill="#D9D9D9"/>
<circle cx="5.22222" cy="5.22222" r="5.22222" transform="matrix(-1 0 0 1 52.2222 62.6667)" fill="#D9D9D9"/>
<circle cx="5.22222" cy="5.22222" r="5.22222" transform="matrix(-1 0 0 1 52.2222 20.8889)" fill="#D9D9D9"/>
<circle cx="5.22222" cy="5.22222" r="5.22222" transform="matrix(-1 0 0 1 52.2222 0)" fill="#D9D9D9"/>
<circle cx="5.22222" cy="5.22222" r="5.22222" transform="matrix(-1 0 0 1 10.4445 83.5555)" fill="#D9D9D9"/>
<circle cx="5.22222" cy="5.22222" r="5.22222" transform="matrix(-1 0 0 1 10.4445 41.7778)" fill="#D9D9D9"/>
<circle cx="5.22222" cy="5.22222" r="5.22222" transform="matrix(-1 0 0 1 10.4445 62.6667)" fill="#D9D9D9"/>
<circle cx="5.22222" cy="5.22222" r="5.22222" transform="matrix(-1 0 0 1 10.4445 20.8889)" fill="#D9D9D9"/>
<circle cx="5.22222" cy="5.22222" r="5.22222" transform="matrix(-1 0 0 1 10.4445 0)" fill="#D9D9D9"/>
</svg>
