<svg width="246" height="84" viewBox="0 0 246 84" fill="none" xmlns="http://www.w3.org/2000/svg">
<path d="M4.31964 80.0767L24.1379 60.2584L43.6366 80.0767" stroke="#F5C802" stroke-width="5" stroke-linecap="square"/>
<path d="M4 51.9475L23.8183 32.1292L43.317 51.9475" stroke="#F5C802" stroke-width="5" stroke-linecap="square"/>
<path d="M4.63928 23.8183L24.4576 4L43.9562 23.8183" stroke="#F5C802" stroke-width="5" stroke-linecap="square"/>
<path d="M83.2732 80.0767L103.091 60.2584L122.59 80.0767" stroke="#F5C802" stroke-width="5" stroke-linecap="square"/>
<path d="M82.9536 51.9475L102.772 32.1292L122.271 51.9475" stroke="#F5C802" stroke-width="5" stroke-linecap="square"/>
<path d="M83.5929 23.8183L103.411 4L122.91 23.8183" stroke="#F5C802" stroke-width="5" stroke-linecap="square"/>
<path d="M162.546 80.0767L182.365 60.2584L201.863 80.0767" stroke="#F5C802" stroke-width="5" stroke-linecap="square"/>
<path d="M162.227 51.9475L182.045 32.1292L201.544 51.9475" stroke="#F5C802" stroke-width="5" stroke-linecap="square"/>
<path d="M162.866 23.8183L182.684 4L202.183 23.8183" stroke="#F5C802" stroke-width="5" stroke-linecap="square"/>
<path d="M43.6366 80.0767L63.4549 60.2584L82.9536 80.0767" stroke="#F5C802" stroke-width="5" stroke-linecap="square"/>
<path d="M43.317 51.9475L63.1353 32.1292L82.6339 51.9475" stroke="#F5C802" stroke-width="5" stroke-linecap="square"/>
<path d="M43.9562 23.8183L63.7745 4L83.2732 23.8183" stroke="#F5C802" stroke-width="5" stroke-linecap="square"/>
<path d="M122.59 80.0767L142.408 60.2584L161.907 80.0767" stroke="#F5C802" stroke-width="5" stroke-linecap="square"/>
<path d="M122.271 51.9475L142.089 32.1292L161.587 51.9475" stroke="#F5C802" stroke-width="5" stroke-linecap="square"/>
<path d="M122.91 23.8183L142.728 4L162.227 23.8183" stroke="#F5C802" stroke-width="5" stroke-linecap="square"/>
<path d="M201.863 80.0767L221.682 60.2584L241.18 80.0767" stroke="#F5C802" stroke-width="5" stroke-linecap="square"/>
<path d="M201.544 51.9475L221.362 32.1292L240.861 51.9475" stroke="#F5C802" stroke-width="5" stroke-linecap="square"/>
<path d="M202.183 23.8183L222.001 4L241.5 23.8183" stroke="#F5C802" stroke-width="5" stroke-linecap="square"/>
</svg>
